<?xml version="1.0" encoding="iso-8859-1"?>
<!-- Generator: Adobe Illustrator 19.0.0, SVG Export Plug-In . SVG Version: 6.00 Build 0)  -->
<svg version="1.1" id="Layer_1" xmlns="http://www.w3.org/2000/svg" xmlns:xlink="http://www.w3.org/1999/xlink" x="0px" y="0px"
	 viewBox="0 0 512 512" style="enable-background:new 0 0 512 512;" xml:space="preserve">
<g>
	<path style="fill:#707487;" d="M198.621,503.172h-35.31V17.655C163.31,7.904,171.214,0,180.966,0l0,0
		c9.751,0,17.655,7.904,17.655,17.655V503.172z"/>
	<rect x="198.621" y="317.793" style="fill:#707487;" width="150.069" height="35.31"/>
</g>
<path style="fill:#464655;" d="M198.621,512h-35.31c-4.875,0-8.828-3.953-8.828-8.828l0,0c0-4.875,3.953-8.828,8.828-8.828h35.31
	c4.875,0,8.828,3.953,8.828,8.828l0,0C207.448,508.047,203.496,512,198.621,512z"/>
<g>
	<rect x="163.31" y="459.034" style="fill:#5B5D6E;" width="35.31" height="17.655"/>
	<rect x="163.31" y="423.724" style="fill:#5B5D6E;" width="35.31" height="17.655"/>
	<rect x="163.31" y="388.414" style="fill:#5B5D6E;" width="35.31" height="17.655"/>
	<rect x="163.31" y="353.103" style="fill:#5B5D6E;" width="35.31" height="17.655"/>
</g>
<path style="fill:#464655;" d="M357.517,317.793v35.31c0,4.875-3.953,8.828-8.828,8.828l0,0c-4.875,0-8.828-3.953-8.828-8.828
	v-35.31c0-4.875,3.953-8.828,8.828-8.828l0,0C353.565,308.966,357.517,312.918,357.517,317.793z"/>
<g>
	<rect x="304.552" y="317.793" style="fill:#5B5D6E;" width="17.655" height="35.31"/>
	<rect x="269.241" y="317.793" style="fill:#5B5D6E;" width="17.655" height="35.31"/>
	<rect x="233.931" y="317.793" style="fill:#5B5D6E;" width="17.655" height="35.31"/>
	<rect x="198.621" y="317.793" style="fill:#5B5D6E;" width="17.655" height="35.31"/>
</g>
<g>
</g>
<g>
</g>
<g>
</g>
<g>
</g>
<g>
</g>
<g>
</g>
<g>
</g>
<g>
</g>
<g>
</g>
<g>
</g>
<g>
</g>
<g>
</g>
<g>
</g>
<g>
</g>
<g>
</g>
</svg>
